<svg width="82" height="58" viewBox="0 0 82 58" fill="none" xmlns="http://www.w3.org/2000/svg">
<path d="M9.56642 22.0911H25.5108V39.9448H9.74881C9.65793 39.9448 9.56641 39.8442 9.56641 39.7428L9.56642 22.0911Z" fill="#205198"/>
<path d="M36.1719 7.062V43.0715C42.0029 43.374 47.9248 45.3913 53.7562 48.8213V13.417C47.9251 9.58385 42.0033 7.46601 36.1719 7.06218V7.062ZM51.8429 40.7516C51.023 42.2643 49.6561 41.6592 49.2918 41.458C46.1026 39.2389 42.8226 38.1294 39.6342 38.1294C38.632 38.1294 37.8122 37.2217 37.8122 36.1122C37.8122 35.0027 38.632 34.095 39.6342 34.095C43.5517 34.095 47.379 35.4065 51.2054 38.0289C52.1162 38.5326 52.3894 39.7428 51.8429 40.7517V40.7516ZM51.8429 33.3877C51.023 34.9004 49.6561 34.2954 49.2918 34.0941C46.1026 31.8751 42.8226 30.7655 39.6342 30.7655C38.632 30.7655 37.8122 29.8579 37.8122 28.7484C37.8122 27.6388 38.632 26.7312 39.6342 26.7312C43.5517 26.7312 47.379 28.0427 51.2054 30.665C52.1162 31.1688 52.3894 32.4803 51.8429 33.3879V33.3877ZM51.8429 26.1253C51.023 27.638 49.6561 27.0329 49.2918 26.8317C46.1026 24.6126 42.8226 23.5031 39.6342 23.5031C38.632 23.5031 37.8122 22.5955 37.8122 21.4859C37.8122 20.3764 38.632 19.4688 39.6342 19.4688C43.5517 19.4688 47.379 20.7803 51.2054 23.4026C52.1162 23.9071 52.3894 25.1173 51.8429 26.1255V26.1253ZM51.8429 18.7622C51.023 20.2749 49.6561 19.6698 49.2918 19.4686C46.1026 17.2495 42.8226 16.14 39.6342 16.14C38.632 16.14 37.8122 15.2324 37.8122 14.1228C37.8122 13.0133 38.632 12.1057 39.6342 12.1057C43.5517 12.1057 47.379 13.4172 51.2054 16.0395C52.1162 16.5433 52.3894 17.8547 51.8429 18.7624V18.7622Z" fill="#205198"/>
<path d="M57.4902 13.4166V48.8209C63.3213 45.3916 69.2432 43.3744 75.0746 43.0711L75.0752 7.26335C75.0752 7.16274 74.9843 7.06142 74.8928 7.06142C69.0617 7.46528 63.2307 9.58309 57.4907 13.4162L57.4902 13.4166ZM71.5216 38.0281C68.3324 38.0281 65.0524 39.1377 61.864 41.3567C61.5907 41.5587 60.1328 42.1638 59.3129 40.6503C58.7664 39.6414 59.0397 38.4312 59.951 37.826C63.7777 35.2037 67.6957 33.8922 71.5222 33.8922C72.5245 33.8922 73.3443 34.7999 73.3443 35.9094C73.4345 37.1203 72.6147 38.028 71.5216 38.028L71.5216 38.0281ZM71.5216 30.7657C68.3324 30.7657 65.0524 31.8753 61.864 34.0943C61.5907 34.2962 60.1328 34.9013 59.3129 33.3879C58.7664 32.3789 59.0397 31.1688 59.951 30.5636C63.7777 27.9413 67.6957 26.6298 71.5222 26.6298C72.5245 26.6298 73.3443 27.5375 73.3443 28.647C73.4345 29.8579 72.6147 30.7655 71.5216 30.7655L71.5216 30.7657ZM71.5216 23.4026C68.3324 23.4026 65.0524 24.5122 61.864 26.7312C61.5907 26.9331 60.1328 27.5382 59.3129 26.0248C58.7664 25.0158 59.0397 23.8057 59.951 23.2005C63.7777 20.5782 67.6957 19.2667 71.5222 19.2667C72.5245 19.2667 73.3443 20.1744 73.3443 21.2839C73.4345 22.4941 72.6147 23.4024 71.5216 23.4024L71.5216 23.4026ZM71.5216 16.1402C68.3324 16.1402 65.0524 17.2498 61.864 19.4688C61.5907 19.6707 60.1328 20.2758 59.3129 18.7624C58.7664 17.7534 59.0397 16.5433 59.951 15.9381C63.7777 13.3157 67.6957 12.0043 71.5222 12.0043C72.5245 12.0043 73.3443 12.9119 73.3443 14.0214C73.3436 15.2323 72.6147 16.14 71.5216 16.14L71.5216 16.1402Z" fill="#205198"/>
<path d="M81.9994 11.0967V49.9304C81.9994 50.0311 81.9085 50.1324 81.9085 50.1324L55.6687 58H55.5778L29.338 50.1324C29.2471 50.1324 29.2471 50.0318 29.2471 49.9304V10.8949L32.5271 11.9039V43.1726C32.5271 45.2912 34.0758 47.1065 35.9894 47.207C41.8205 47.5095 47.8339 49.7286 53.756 53.5618C54.9406 54.2682 56.3071 54.2682 57.4917 53.5618C63.4135 49.7286 69.427 47.6108 75.2582 47.207C77.2626 47.1064 78.7206 45.2903 78.7206 43.1726V11.9039L81.8182 10.9963C81.9091 10.8949 81.9999 10.9956 81.9999 11.0969L81.9994 11.0967Z" fill="#205198"/>
<path d="M4.55553 0.203014H1.82205C0.819799 0.203014 0 1.11065 0 2.22017C0 3.32974 0.819848 4.23733 1.82205 4.23733H4.55553V13.9209H1.82205C0.819799 13.9209 0 14.8286 0 15.9381C0 17.0476 0.819848 17.9552 1.82205 17.9552H25.5108V10.7933C25.5108 8.77616 27.242 5.95189 30.1573 6.85951L32.435 7.56592V7.06144C32.435 5.95187 32.8907 4.84237 33.6197 4.03525C34.3486 3.22823 35.3509 2.82507 36.3531 2.92568C40.4529 3.22823 44.6444 4.23717 48.8351 6.05238V0L4.55553 0.203014Z" fill="#205198"/>
</svg>
