<svg width="82" height="82" viewBox="0 0 82 82" fill="none" xmlns="http://www.w3.org/2000/svg">
<path fill-rule="evenodd" clip-rule="evenodd" d="M81.904 25.7325C81.815 22.3681 80.4503 19.5859 76.863 17.9741C75.4092 17.3233 73.9135 16.9724 72.3289 17.0036C71.0061 17.0329 69.6781 17.0355 68.3546 16.9769C67.6716 16.9476 67.291 17.2908 66.9758 17.8716C66.2388 19.2248 65.4884 20.5672 64.7361 21.9115C64.635 22.0924 64.5029 22.2541 64.3657 22.4063C64.1541 22.6375 64.0238 22.6254 63.844 22.3006C63.0015 20.7595 62.0841 19.2669 61.2765 17.7092C61.0224 17.2125 60.7574 16.9928 60.2618 17.0023C58.3607 17.0335 56.4191 16.8043 54.5619 17.1329C50.6861 17.8149 47.1274 20.0699 46.5281 25.5802C46.4532 26.2724 46.307 26.3762 45.7828 25.9992C44.603 25.1529 43.4173 24.3142 42.2857 23.3971C41.2444 22.5508 40.1223 22.5865 39.0091 22.9775C38.5592 23.1373 38.2765 23.1583 37.9118 22.8743C37.5312 22.5795 37.1023 22.3585 36.7141 22.0738C34.0359 20.1009 31.363 18.1212 28.6886 16.1432C26.6802 14.6581 24.6725 13.175 22.6684 11.6817C22.0864 11.2499 21.8507 11.2569 21.4695 11.7708C21.1041 12.2676 21.1473 12.5408 21.7503 13.0298C22.3927 13.5501 23.0528 14.0475 23.7181 14.5372C26.7622 16.7673 29.8107 18.9943 32.8586 21.2225C34.0855 22.1172 35.308 23.0208 36.5456 23.8971C37.0755 24.2702 37.3424 24.6536 37.1912 25.426C36.8779 27.0302 37.4606 28.2689 38.7288 29.1782C41.7125 31.3243 44.6841 33.4856 47.6482 35.6654C48.992 36.6544 51.1396 36.5481 52.0519 35.4483C52.6752 34.6962 52.8919 33.8836 52.8938 32.9424C52.8995 31.3631 52.8747 29.7806 52.909 28.2014C52.9135 27.8811 53.0622 27.3378 53.2407 27.2901C53.674 27.1697 54.1696 27.2442 54.629 27.3168C54.723 27.3315 54.8164 27.6766 54.8342 27.8766C54.8679 28.316 54.8577 28.7592 54.8577 29.2005C54.8533 47.1789 54.8463 58.1569 54.8514 76.1353C54.8514 77.2624 54.7713 78.3972 55.293 79.4746C56.2123 81.3628 57.6947 82.1111 59.557 81.9233C61.2223 81.7532 62.4015 80.7751 63.0751 79.0493C63.3813 78.2654 63.4277 77.4955 63.4277 76.6918C63.4296 65.2227 63.4296 60.7511 63.4296 49.2809C63.4296 48.9504 63.4366 48.6193 63.4322 48.2894C63.4277 47.7564 63.516 47.3482 64.1482 47.3603C64.8471 47.3756 65.0555 47.5481 65.0994 48.3136C65.114 48.5709 65.1019 48.8294 65.1019 49.088C65.1019 60.6684 65.1076 65.2491 65.0937 76.8298C65.0918 78.6193 65.5346 80.1896 66.9775 81.1927C69.331 82.8223 72.4431 81.967 73.5231 78.7881C73.7455 78.129 73.6604 77.3336 73.6623 76.6026C73.6667 69.7275 73.6623 71.2521 73.6604 64.3757C73.6566 62.2444 73.6604 58.7126 73.6566 56.5786V28.5645C73.6566 28.4174 73.6667 28.2677 73.6521 28.1238C73.5905 27.4705 73.8351 27.1833 74.4609 27.1998C75.2495 27.217 75.3943 27.3011 75.4293 28.0901C75.4547 28.7154 75.4362 29.3401 75.4362 29.9642C75.4362 34.9664 75.4432 39.9654 75.4261 44.9637C75.4242 45.9604 75.6593 46.8265 76.2228 47.6192C77.5711 49.5201 80.3128 49.1603 81.3312 47.3078C81.694 46.6462 81.924 45.798 81.9285 45.0338C81.9755 38.5994 82.0746 32.1599 81.9037 25.7334L81.904 25.7325ZM46.9997 37.6823C46.4889 37.3225 45.9984 36.9302 45.4856 36.5787C45.0192 36.2558 44.8172 36.338 44.7524 36.9309C44.6895 37.5117 44.6984 38.1052 44.7162 38.6911C44.7333 39.289 44.516 39.5928 43.9436 39.5641C43.671 39.552 43.401 39.566 43.1284 39.566H4.98561C4.78166 39.566 4.5777 39.5514 4.37439 39.5616C3.84512 39.5909 3.64307 39.282 3.64561 38.7535C3.64751 38.2376 3.64561 37.7237 3.64561 37.2079C3.64624 28.1276 3.64751 19.0486 3.64751 9.96492C3.64751 9.78151 3.64688 9.59811 3.64751 9.41471C3.6545 7.99398 3.6545 7.98952 4.93669 7.98952C17.7515 7.98952 30.568 7.98952 43.382 7.99206C43.5192 7.99206 43.6552 7.98761 43.7893 7.99397C44.6235 8.03218 44.6985 8.09714 44.7017 9.04026C44.7137 11.6875 44.708 14.3335 44.708 16.982C44.708 18.0837 44.6934 19.1885 44.7226 20.2903C44.7328 20.6424 44.783 21.0436 44.9495 21.3327C45.0861 21.5709 45.4088 21.7708 45.6719 21.8071C45.7964 21.8243 45.9788 21.4289 46.1236 21.2092C46.6821 20.3412 47.2057 19.4446 47.8004 18.6071C48.1696 18.0856 48.3469 17.5729 48.3424 16.9074C48.3106 13.4508 48.3278 9.99554 48.3233 6.54007C48.3189 4.83468 47.6213 4.07498 46.0214 4.07237C38.7133 4.06537 31.4047 4.06792 24.0955 4.06792C16.856 4.06792 9.6147 4.08256 2.37441 4.05072C1.27965 4.04626 0.531194 4.44873 0.177906 5.5759C0.0711632 5.91086 0.022876 6.28404 0.022876 6.64129C0.01271 18.0383 0.0228752 29.4354 2.5399e-06 40.8308C-0.00190362 42.5044 1.06933 43.511 2.43724 43.5053C16.7827 43.469 31.1281 43.4881 45.4727 43.4735C46.061 43.4716 46.6875 43.3633 47.2313 43.1296C47.5967 42.9698 48.0255 42.545 48.1069 42.1617C48.2911 41.323 48.2714 40.4328 48.3261 39.5616C48.3953 38.514 47.6475 38.1428 46.9981 37.6818L46.9997 37.6823ZM64.3339 15.6447C68.075 15.6421 71.6165 12.2702 71.4254 7.74435C71.407 2.93138 68.138 0.056771 64.2215 0.000690637C60.7034 -0.0502545 57.1497 2.71863 57.0876 7.86221C57.0342 12.2919 60.4817 15.6466 64.3341 15.6447H64.3339Z" fill="#205198"/>
</svg>
