<svg width="74" height="72" viewBox="0 0 74 72" fill="none" xmlns="http://www.w3.org/2000/svg">
<g clip-path="url(#clip0_1241_8752)">
<path d="M14.2321 55.3824V33.2298C15.8003 33.2298 17.0782 31.9864 17.0782 30.4607V27.6915L11.386 27.6913H2.84766V30.4604C2.84766 31.9862 4.12557 33.2296 5.6937 33.2296V55.3822L14.2321 55.3824Z" fill="#205198"/>
<path d="M31.3081 55.3824V33.2298C32.8763 33.2298 34.1542 31.9864 34.1542 30.4607V27.6915H28.462L25.616 27.6913H19.9238V30.4604C19.9238 31.9862 21.2017 33.2296 22.7699 33.2296V55.3822L31.3081 55.3824Z" fill="#205198"/>
<path d="M48.3842 55.3824V33.2298C49.9524 33.2298 51.2302 31.9864 51.2302 30.4607V27.6915H37V30.4607C37 31.9865 38.2779 33.2298 39.846 33.2298V55.3824H48.3842Z" fill="#205198"/>
<path d="M65.4594 55.3824V33.2298C67.0275 33.2298 68.3054 31.9864 68.3054 30.4607V27.6915H54.0752V30.4607C54.0752 31.9865 55.3531 33.2298 56.9212 33.2298V55.3824H65.4594Z" fill="#205198"/>
<path d="M68.3078 63.69H65.4617V58.1517L5.69501 58.1519V63.6902L2.84897 63.69C1.28079 63.69 0.00292969 64.9334 0.00292969 66.4591V69.2282C0.00292969 70.754 1.28085 71.9974 2.84897 71.9974H68.3081C69.8763 71.9974 71.1542 70.754 71.1542 69.2282V66.4591C71.1542 64.9361 69.8763 63.69 68.3081 63.69H68.3078Z" fill="#205198"/>
<path d="M2.73539 24.921H68.361H68.4179C69.9263 24.921 71.15 23.6832 71.15 22.1519C71.15 20.9889 70.4443 19.9947 69.4395 19.5822L36.9264 0.375578C36.0753 -0.128326 35.0195 -0.128326 34.1685 0.375578L1.35626 19.7598C0.288877 20.391 -0.229 21.6676 0.0925918 22.8749C0.414171 24.0821 1.49576 24.9212 2.73365 24.9212L2.73539 24.921ZM35.576 9.27838C38.957 9.27838 41.6921 11.9423 41.6921 15.2292C41.6921 18.5189 38.957 21.18 35.576 21.18C32.1949 21.18 29.4599 18.5189 29.4599 15.2292C29.4596 11.9395 32.1947 9.27838 35.576 9.27838Z" fill="#205198"/>
</g>
<defs>
<clipPath id="clip0_1241_8752">
<rect width="74" height="72" fill="white"/>
</clipPath>
</defs>
</svg>
