<svg width="68" height="82" viewBox="0 0 68 82" fill="none" xmlns="http://www.w3.org/2000/svg">
<path fill-rule="evenodd" clip-rule="evenodd" d="M17.9057 52.7552H22.3201C25.5244 55.6945 29.584 57.4524 34.0008 57.4524C37.7344 57.4524 41.2139 55.5305 44.1361 52.7552H50.0951C59.943 52.7552 68 60.7522 68 70.5255V82H0V70.5255C0 60.7516 8.05759 52.7552 17.9049 52.7552H17.9057Z" fill="#205198"/>
<path d="M51.8814 23.1108C52.4354 26.0325 52.5192 31.0262 52.1019 34.0935C51.4803 38.6616 49.6769 42.761 47.0834 45.9144C43.7538 49.9632 39.1302 52.4676 34.0011 52.4676C28.872 52.4676 24.2485 49.9632 20.9189 45.9144C18.324 42.7586 16.5198 38.6556 15.8987 34.0836C15.4823 31.0186 15.5668 26.0294 16.12 23.11L19.4949 23.7369C18.9777 26.4633 18.9339 31.3671 19.3957 34.2192C19.9951 37.9195 21.485 41.2172 23.5804 43.7652C26.266 47.0309 29.9514 49.0502 34.0002 49.0502C38.0497 49.0502 41.7349 47.0307 44.4199 43.7652C46.5293 41.1997 48.0253 37.8746 48.617 34.1431C49.0665 31.3091 49.0189 26.4428 48.5056 23.7377L51.8804 23.1108H51.8814Z" fill="#205198"/>
<path fill-rule="evenodd" clip-rule="evenodd" d="M34.001 0.000878818L64.9972 8.82607L57.2392 11.0346C57.0003 10.442 56.4363 10.0103 55.7593 9.96382L35.7791 7.20691C35.2926 6.81568 34.6434 6.59604 34.0002 6.59604C32.72 6.59604 31.4183 7.46468 31.4183 8.82523C31.4183 10.1858 32.72 11.0544 34.0002 11.0544C34.5419 11.0544 35.0875 10.8988 35.537 10.6167L51.0321 12.8015L34.0011 17.6504L3.00488 8.82519L34.0011 0L34.001 0.000878818Z" fill="#205198"/>
<path fill-rule="evenodd" clip-rule="evenodd" d="M52.6376 13.677V24.1861C52.6376 25.051 51.6486 25.6718 50.4537 25.7587L33.9773 27.017L17.5472 25.7587C16.3531 25.6672 15.3633 25.051 15.3633 24.1861V13.677L34.0003 18.9835L52.6376 13.677Z" fill="#205198"/>
<path fill-rule="evenodd" clip-rule="evenodd" d="M35.7218 8.82548C35.7218 9.58506 34.9511 10.2005 34.0005 10.2005C33.05 10.2005 32.2793 9.58508 32.2793 8.82548C32.2793 8.06588 33.05 7.45044 34.0005 7.45044C34.9511 7.45044 35.7218 8.06588 35.7218 8.82548Z" fill="#205198"/>
<path d="M35.0928 7.97426C34.6194 7.94452 34.2114 8.3022 34.1814 8.77197C34.1515 9.24175 34.5118 9.64672 34.9852 9.67646L54.7785 12.4677V27.32C54.7785 27.7921 55.1643 28.1742 55.6391 28.1742C56.1148 28.1742 56.4998 27.7913 56.4998 27.32V11.6677C56.4998 11.2207 56.1501 10.844 55.6945 10.815L55.6929 10.8166L35.0928 7.97426Z" fill="#205198"/>
<path fill-rule="evenodd" clip-rule="evenodd" d="M56.8688 27.2263C56.8688 27.9493 56.2787 28.535 55.551 28.535C54.8226 28.535 54.2324 27.9493 54.2324 27.2263C54.2324 26.5041 54.8226 25.9177 55.551 25.9177C56.2787 25.9177 56.8688 26.5041 56.8688 27.2263Z" fill="#205198"/>
<path fill-rule="evenodd" clip-rule="evenodd" d="M53.9297 34.8054L55.551 25.9511L57.1716 34.8054H53.9297Z" fill="#205198"/>
</svg>
